# Blender v2.65 (sub 0) OBJ File: 'aero-r.blend'
# www.blender.org
mtllib aero.mtl
o Cube_Cube.002
v 0.421500 0.209996 -1.223740
v 0.421500 4.668540 -1.223740
v 2.421500 4.668540 -1.223740
v 2.421500 0.209996 -1.223740
v 0.703688 0.456641 0.057377
v 0.703688 4.436018 0.057377
v 2.166796 4.436018 0.057377
v 2.166796 0.456641 0.057377
v 0.421500 4.668540 -0.583182
v 0.421500 0.209997 -0.583182
v 2.421500 4.668540 -0.583182
v 2.421500 0.209997 -0.583182
vt 0.163037 0.526969
vt 0.835578 0.526969
vt 0.835578 0.623593
vt 0.903297 0.463951
vt 0.903297 0.162265
vt 0.999920 0.162265
vt 0.835578 0.096703
vt 0.163038 0.096703
vt 0.163038 0.000079
vt 0.096703 0.463951
vt 0.000079 0.463951
vt 0.096703 0.162265
vt 0.200242 0.200685
vt 0.800504 0.200685
vt 0.800504 0.421385
vt 0.200242 0.421385
vt 0.163037 0.623593
vt 0.999921 0.463951
vt 0.835579 0.000079
vt 0.000079 0.162265
vt 0.000000 0.000000
vn -1.000000 0.000000 0.000000
vn 0.000000 1.000000 -0.000000
vn 1.000000 -0.000000 0.000000
vn 0.000000 -1.000000 0.000000
vn -0.000000 0.000000 1.000000
vn -0.915135 0.000000 0.403148
vn 0.000000 0.939986 0.341214
vn 0.929235 0.000000 0.369490
vn 0.000000 -0.933211 0.359329
vn -0.000000 -0.000000 -1.000000
usemtl Material.001
s off
f 10/1/1 9/2/1 2/3/1
f 9/4/2 11/5/2 3/6/2
f 11/7/3 12/8/3 4/9/3
f 10/10/4 1/11/4 12/12/4
f 8/13/5 7/14/5 6/15/5
f 5/16/6 6/15/6 9/2/6
f 6/15/7 7/14/7 11/5/7
f 7/14/8 8/13/8 11/7/8
f 8/13/9 5/16/9 12/12/9
f 1/17/1 10/1/1 2/3/1
f 2/18/2 9/4/2 3/6/2
f 3/19/3 11/7/3 4/9/3
f 12/12/4 1/11/4 4/20/4
f 5/16/5 8/13/5 6/15/5
f 10/1/6 5/16/6 9/2/6
f 9/4/7 6/15/7 11/5/7
f 8/13/8 12/8/8 11/7/8
f 5/16/9 10/10/9 12/12/9
usemtl Material.001_NONE
f 1/21/10 2/21/10 3/21/10
f 4/21/10 1/21/10 3/21/10
