# Blender v2.65 (sub 0) OBJ File: 'coffeecrisp-r.blend'
# www.blender.org
mtllib coffeecrisp.mtl
o Cube.001
v 0.173511 0.089599 -1.794243
v 0.173511 4.515077 -1.794243
v 2.173511 4.515077 -1.794243
v 2.173511 0.089599 -1.794243
v 0.173511 0.089599 -0.161290
v 0.173511 4.515077 -0.161291
v 2.173511 4.515077 -0.161291
v 2.173511 0.089599 -0.161290
vt 0.212357 0.212357
vt 0.212357 0.787643
vt 0.000083 0.787643
vt 0.472345 0.787643
vt 0.472346 0.999917
vt 0.472345 0.212357
vt 0.684619 0.212357
vt 0.212357 0.000083
vt 0.000083 0.212357
vt 0.212357 0.999917
vt 0.684620 0.787643
vt 0.472345 0.000083
vt 0.000000 0.000000
vn -1.000000 0.000000 0.000000
vn 0.000000 1.000000 -0.000000
vn 1.000000 -0.000000 0.000000
vn 0.000000 -1.000000 0.000000
vn -0.000000 0.000000 1.000000
vn -0.000000 -0.000000 -1.000000
usemtl Material.001
s off
f 5/1/1 6/2/1 2/3/1
f 6/2/2 7/4/2 3/5/2
f 7/4/3 8/6/3 4/7/3
f 5/1/4 1/8/4 8/6/4
f 8/6/5 7/4/5 6/2/5
f 1/9/1 5/1/1 2/3/1
f 2/10/2 6/2/2 3/5/2
f 3/11/3 7/4/3 4/7/3
f 8/6/4 1/8/4 4/12/4
f 5/1/5 8/6/5 6/2/5
usemtl Material.001_NONE
f 1/13/6 2/13/6 3/13/6
f 4/13/6 1/13/6 3/13/6
